# xmcd
#
# Track frame offsets:
#	150
#	15928
#	31882
#	44261
#	60535
#	73989
#	89256
#	102130
#	118993
#	134309
#	163627
#	175743
#	188570
#	201991
#
# Disc length: 2890 seconds
#
# Revision: 0
# Processed by: cddbd v1.5.1PL0 Copyright (c) Steve Scherf et al.
# Submitted via: dBpowerAMP V4.0
#
DISCID=b90b480e
DTITLE=AD and KARIN - COUNTRY LOVESONGS FOREVER
DYEAR=1900
DGENRE=Country
TTITLE0=BLANKET ON THE GROUND
TTITLE1=HELP ME MAKE IT TROUGH THE NIGHT
TTITLE2=RING OF FIRE
TTITLE3=BABY BLUE
TTITLE4=A LOAD OF MY MIND
TTITLE5=CËST LA VIE
TTITLE6=SOMEWHERE BETWEEN
TTITLE7=BLUE BAYOU
TTITLE8=GREEN GREEN GRASS OF HOME
TTITLE9=COUNTRY FOR EVER
TTITLE10=STAND BY YOUR MAN
TTITLE11=TOGETHER AGAIN
TTITLE12=ROSEGARDEN
TTITLE13=ADIOS
EXTD=AD and KARIN COUNTRY LOVE SONGS FOR EVER VOLUME 1
EXTT0=
EXTT1=
EXTT2=
EXTT3=
EXTT4=
EXTT5=
EXTT6=
EXTT7=
EXTT8=
EXTT9=
EXTT10=
EXTT11=
EXTT12=
EXTT13=
PLAYORDER=
